<svg xmlns="http://www.w3.org/2000/svg" xmlns:xlink="http://www.w3.org/1999/xlink" width="64" zoomAndPan="magnify" viewBox="0 0 48 48" height="64" preserveAspectRatio="xMidYMid meet" version="1.0"><defs><g/><clipPath id="5f7a75f842"><rect x="0" width="42" y="0" height="33"/></clipPath></defs><g transform="matrix(1, 0, 0, 1, 3, 7)"><g clip-path="url(#5f7a75f842)"><g fill="#111517" fill-opacity="1"><g transform="translate(0.821438, 24.839311)"><g><path d="M 2.824219 0 L 2.824219 -18.390625 L 14.792969 -18.390625 L 14.792969 -16.871094 L 4.53125 -16.871094 L 4.53125 -10.128906 L 12.765625 -10.128906 L 12.765625 -8.636719 L 4.53125 -8.636719 L 4.53125 0 Z M 2.824219 0 "/></g></g></g><g fill="#111517" fill-opacity="1"><g transform="translate(16.600135, 24.839311)"><g><path d="M 2.796875 0 L 2.796875 -18.390625 L 5.945312 -18.390625 L 12.152344 -2.878906 L 12.445312 -2.878906 L 18.65625 -18.390625 L 21.777344 -18.390625 L 21.777344 0 L 20.070312 0 L 20.070312 -17.136719 L 19.777344 -17.136719 L 12.980469 0 L 11.566406 0 L 4.769531 -17.136719 L 4.449219 -17.136719 L 4.449219 0 Z M 2.796875 0 "/></g></g></g></g></g></svg>