<svg xmlns="http://www.w3.org/2000/svg" xmlns:xlink="http://www.w3.org/1999/xlink" width="1200" zoomAndPan="magnify" viewBox="0 0 900 225" height="300" preserveAspectRatio="xMidYMid meet" version="1.0"><defs><g/><clipPath id="d33a190bbc"><rect x="0" width="500" y="0" height="69"/></clipPath></defs><g transform="matrix(1, 0, 0, 1, 200, 78)"><g clip-path="url(#d33a190bbc)"><g fill="#ffffff" fill-opacity="1"><g transform="translate(0.996051, 52.42302)"><g><path d="M 15.886719 0.574219 C 12.332031 0.574219 9.53125 -0.125 7.484375 -1.519531 C 5.4375 -2.914062 4.054688 -5.105469 3.328125 -8.085938 L 7.054688 -8.085938 C 7.054688 -7.4375 7.292969 -6.671875 7.769531 -5.792969 C 8.25 -4.914062 9.128906 -4.148438 10.410156 -3.5 C 11.691406 -2.847656 13.515625 -2.523438 15.886719 -2.523438 C 18.679688 -2.523438 20.875 -3.019531 22.484375 -4.015625 C 24.089844 -5.007812 24.890625 -6.40625 24.890625 -8.203125 C 24.890625 -9.5 24.402344 -10.503906 23.429688 -11.210938 C 22.453125 -11.921875 20.78125 -12.523438 18.410156 -13.019531 L 11.816406 -14.339844 C 8.910156 -14.949219 6.777344 -15.878906 5.417969 -17.121094 C 4.0625 -18.363281 3.382812 -20.054688 3.382812 -22.195312 C 3.382812 -25.023438 4.464844 -27.234375 6.625 -28.820312 C 8.785156 -30.40625 11.816406 -31.199219 15.714844 -31.199219 C 19.234375 -31.199219 22.003906 -30.503906 24.03125 -29.105469 C 26.058594 -27.710938 27.433594 -25.523438 28.160156 -22.539062 L 24.488281 -22.539062 C 24.488281 -23.191406 24.25 -23.953125 23.773438 -24.835938 C 23.296875 -25.714844 22.425781 -26.476562 21.164062 -27.128906 C 19.902344 -27.777344 18.085938 -28.101562 15.714844 -28.101562 C 13 -28.101562 10.867188 -27.605469 9.320312 -26.613281 C 7.769531 -25.617188 6.996094 -24.222656 6.996094 -22.425781 C 6.996094 -21.125 7.476562 -20.113281 8.429688 -19.386719 C 9.386719 -18.660156 11.011719 -18.066406 13.304688 -17.609375 L 19.902344 -16.347656 C 22.847656 -15.734375 25.007812 -14.808594 26.382812 -13.5625 C 27.757812 -12.320312 28.449219 -10.628906 28.449219 -8.488281 C 28.449219 -5.660156 27.347656 -3.441406 25.148438 -1.835938 C 22.949219 -0.230469 19.863281 0.574219 15.886719 0.574219 Z M 15.886719 0.574219 "/></g></g></g><g fill="#ffffff" fill-opacity="1"><g transform="translate(32.655326, 52.42302)"><g><path d="M 7.683594 0 L 7.683594 -27.703125 L 2.007812 -27.703125 L 2.007812 -30.625 L 11.242188 -30.625 L 11.242188 0 Z M 6.996094 -36.417969 L 6.996094 -40.722656 L 11.644531 -40.722656 L 11.644531 -36.417969 Z M 6.996094 -36.417969 "/></g></g></g><g fill="#ffffff" fill-opacity="1"><g transform="translate(49.34526, 52.42302)"><g><path d="M 24.089844 -18.984375 C 24.089844 -25.023438 21.566406 -28.046875 16.519531 -28.046875 C 11.472656 -28.046875 8.945312 -25.023438 8.945312 -18.984375 L 8.945312 0 L 5.390625 0 L 5.390625 -30.625 L 8.601562 -30.625 L 8.601562 -26.324219 L 9.234375 -26.324219 C 10.191406 -27.929688 11.394531 -29.144531 12.847656 -29.96875 C 14.300781 -30.789062 16.019531 -31.199219 18.007812 -31.199219 C 20.113281 -31.199219 21.859375 -30.789062 23.257812 -29.96875 C 24.652344 -29.144531 25.789062 -27.929688 26.667969 -26.324219 L 27.585938 -26.324219 C 28.582031 -27.929688 29.804688 -29.144531 31.257812 -29.96875 C 32.710938 -30.789062 34.546875 -31.199219 36.765625 -31.199219 C 39.9375 -31.199219 42.335938 -30.207031 43.960938 -28.21875 C 45.585938 -26.230469 46.398438 -23.265625 46.398438 -19.328125 L 46.398438 0 L 42.84375 0 L 42.84375 -18.984375 C 42.84375 -25.023438 40.320312 -28.046875 35.273438 -28.046875 C 30.226562 -28.046875 27.703125 -25.023438 27.703125 -18.984375 L 27.703125 0 L 24.089844 0 Z M 24.089844 -18.984375 "/></g></g></g><g fill="#ffffff" fill-opacity="1"><g transform="translate(100.676889, 52.42302)"><g><path d="M 5.390625 9.40625 L 5.390625 -30.625 L 8.601562 -30.625 L 8.601562 -25.578125 L 9.234375 -25.578125 C 10.457031 -27.453125 11.902344 -28.859375 13.5625 -29.796875 C 15.226562 -30.730469 17.1875 -31.199219 19.441406 -31.199219 C 22.15625 -31.199219 24.472656 -30.578125 26.382812 -29.335938 C 28.292969 -28.09375 29.757812 -26.296875 30.769531 -23.945312 C 31.785156 -21.59375 32.289062 -18.714844 32.289062 -15.3125 C 32.289062 -10.226562 31.164062 -6.308594 28.90625 -3.554688 C 26.648438 -0.804688 23.496094 0.574219 19.441406 0.574219 C 17.1875 0.574219 15.238281 0.125 13.59375 -0.773438 C 11.949219 -1.671875 10.535156 -3 9.347656 -4.761719 L 8.71875 -4.761719 C 8.832031 -3.191406 8.898438 -1.894531 8.917969 -0.859375 C 8.9375 0.171875 8.945312 1.128906 8.945312 2.007812 L 8.945312 9.40625 Z M 18.753906 -2.582031 C 22.082031 -2.582031 24.539062 -3.535156 26.125 -5.449219 C 27.710938 -7.359375 28.503906 -10.324219 28.503906 -14.339844 L 28.503906 -16.289062 C 28.503906 -20.304688 27.710938 -23.265625 26.125 -25.179688 C 24.539062 -27.089844 22.082031 -28.046875 18.753906 -28.046875 C 15.390625 -28.046875 12.914062 -27.089844 11.328125 -25.179688 C 9.742188 -23.265625 8.945312 -20.304688 8.945312 -16.289062 L 8.945312 -14.339844 C 8.945312 -10.324219 9.742188 -7.359375 11.328125 -5.449219 C 12.914062 -3.535156 15.390625 -2.582031 18.753906 -2.582031 Z M 18.753906 -2.582031 "/></g></g></g><g fill="#ffffff" fill-opacity="1"><g transform="translate(136.29358, 52.42302)"><g><path d="M 8.03125 0 C 6.234375 0 5.332031 -0.898438 5.332031 -2.695312 L 5.332031 -41.410156 L 8.890625 -41.410156 L 8.890625 -2.925781 L 17.550781 -2.925781 L 17.550781 0 Z M 8.03125 0 "/></g></g></g><g fill="#ffffff" fill-opacity="1"><g transform="translate(154.302663, 52.42302)"><g><path d="M 17.261719 0.574219 C 12.90625 0.574219 9.492188 -0.804688 7.027344 -3.554688 C 4.558594 -6.308594 3.328125 -10.226562 3.328125 -15.3125 C 3.328125 -20.398438 4.558594 -24.316406 7.027344 -27.070312 C 9.492188 -29.824219 12.90625 -31.199219 17.261719 -31.199219 C 21.46875 -31.199219 24.757812 -29.929688 27.128906 -27.386719 C 29.5 -24.84375 30.683594 -21.203125 30.683594 -16.460938 L 30.683594 -14.910156 L 5.851562 -14.910156 L 5.851562 -17.664062 L 28.964844 -17.664062 L 27.359375 -15.542969 L 27.359375 -16.289062 C 27.359375 -20.339844 26.535156 -23.324219 24.890625 -25.234375 C 23.246094 -27.148438 20.703125 -28.101562 17.261719 -28.101562 C 13.785156 -28.101562 11.230469 -27.148438 9.605469 -25.234375 C 7.980469 -23.324219 7.167969 -20.339844 7.167969 -16.289062 L 7.167969 -14.394531 C 7.167969 -10.34375 7.980469 -7.359375 9.605469 -5.449219 C 11.230469 -3.535156 13.785156 -2.582031 17.261719 -2.582031 C 19.558594 -2.582031 21.355469 -2.933594 22.65625 -3.640625 C 23.953125 -4.347656 24.863281 -5.144531 25.378906 -6.023438 C 25.894531 -6.902344 26.152344 -7.589844 26.152344 -8.085938 L 29.824219 -8.085938 C 28.945312 -5.257812 27.433594 -3.105469 25.292969 -1.632812 C 23.152344 -0.164062 20.476562 0.574219 17.261719 0.574219 Z M 17.261719 0.574219 "/></g></g></g><g fill="#ffffff" fill-opacity="1"><g transform="translate(188.141382, 52.42302)"><g><path d="M 6.078125 0 L 6.078125 -39.574219 L 31.832031 -39.574219 L 31.832031 -36.304688 L 9.75 -36.304688 L 9.75 -21.792969 L 27.472656 -21.792969 L 27.472656 -18.582031 L 9.75 -18.582031 L 9.75 0 Z M 6.078125 0 "/></g></g></g><g fill="#ffffff" fill-opacity="1"><g transform="translate(219.800683, 52.42302)"><g><path d="M 17.378906 0.574219 C 12.980469 0.574219 9.53125 -0.804688 7.027344 -3.554688 C 4.519531 -6.308594 3.269531 -10.226562 3.269531 -15.3125 C 3.269531 -20.398438 4.519531 -24.316406 7.027344 -27.070312 C 9.53125 -29.824219 12.980469 -31.199219 17.378906 -31.199219 C 21.773438 -31.199219 25.214844 -29.824219 27.703125 -27.070312 C 30.1875 -24.316406 31.429688 -20.398438 31.429688 -15.3125 C 31.429688 -10.226562 30.1875 -6.308594 27.703125 -3.554688 C 25.214844 -0.804688 21.773438 0.574219 17.378906 0.574219 Z M 17.378906 -2.582031 C 20.894531 -2.582031 23.484375 -3.535156 25.148438 -5.449219 C 26.8125 -7.359375 27.644531 -10.34375 27.644531 -14.394531 L 27.644531 -16.230469 C 27.644531 -20.285156 26.8125 -23.265625 25.148438 -25.179688 C 23.484375 -27.089844 20.894531 -28.046875 17.378906 -28.046875 C 13.898438 -28.046875 11.316406 -27.089844 9.636719 -25.179688 C 7.953125 -23.265625 7.113281 -20.285156 7.113281 -16.230469 L 7.113281 -14.394531 C 7.113281 -10.34375 7.953125 -7.359375 9.636719 -5.449219 C 11.316406 -3.535156 13.898438 -2.582031 17.378906 -2.582031 Z M 17.378906 -2.582031 "/></g></g></g><g fill="#ffffff" fill-opacity="1"><g transform="translate(254.557077, 52.42302)"><g><path d="M 5.390625 0 L 5.390625 -30.625 L 8.601562 -30.625 L 8.601562 -26.324219 L 9.234375 -26.324219 C 10.265625 -27.929688 11.566406 -29.144531 13.132812 -29.96875 C 14.703125 -30.789062 16.613281 -31.199219 18.871094 -31.199219 C 22.3125 -31.199219 24.910156 -30.207031 26.667969 -28.21875 C 28.429688 -26.230469 29.308594 -23.265625 29.308594 -19.328125 L 29.308594 0 L 25.75 0 L 25.75 -18.582031 C 25.75 -21.871094 25.082031 -24.269531 23.746094 -25.78125 C 22.40625 -27.289062 20.285156 -28.046875 17.378906 -28.046875 C 14.472656 -28.046875 12.339844 -27.289062 10.984375 -25.78125 C 9.625 -24.269531 8.945312 -21.871094 8.945312 -18.582031 L 8.945312 0 Z M 5.390625 0 "/></g></g></g><g fill="#ffffff" fill-opacity="1"><g transform="translate(288.338447, 52.42302)"><g><path d="M 11.699219 0 C 9.902344 0 9.003906 -0.898438 9.003906 -2.695312 L 9.003906 -39.34375 L 12.558594 -39.34375 L 12.558594 -2.925781 L 23.054688 -2.925781 L 23.054688 0 Z M 1.433594 -27.703125 L 1.433594 -30.625 L 23.054688 -30.625 L 23.054688 -27.703125 Z M 1.433594 -27.703125 "/></g></g></g><g fill="#ffffff" fill-opacity="1"><g transform="translate(313.17264, 52.42302)"><g><path d="M 6.023438 0 L 6.023438 -39.574219 L 12.789062 -39.574219 L 26.152344 -6.195312 L 26.785156 -6.195312 L 40.148438 -39.574219 L 46.859375 -39.574219 L 46.859375 0 L 43.1875 0 L 43.1875 -36.878906 L 42.554688 -36.878906 L 27.929688 0 L 24.890625 0 L 10.265625 -36.878906 L 9.578125 -36.878906 L 9.578125 0 Z M 6.023438 0 "/></g></g></g><g fill="#ffffff" fill-opacity="1"><g transform="translate(366.052815, 52.42302)"><g><path d="M 13.648438 0.574219 C 10.398438 0.574219 7.859375 -0.164062 6.023438 -1.632812 C 4.1875 -3.105469 3.269531 -5.179688 3.269531 -7.859375 C 3.269531 -10.496094 4.226562 -12.570312 6.136719 -14.082031 C 8.046875 -15.589844 10.820312 -16.535156 14.453125 -16.917969 L 24.03125 -17.835938 L 24.03125 -15.140625 L 15.371094 -14.28125 C 12.503906 -14.011719 10.382812 -13.410156 9.003906 -12.472656 C 7.628906 -11.539062 6.941406 -10.171875 6.941406 -8.375 L 6.941406 -8.316406 C 6.941406 -6.441406 7.597656 -5.019531 8.917969 -4.042969 C 10.238281 -3.070312 12.195312 -2.582031 14.796875 -2.582031 C 20.953125 -2.582031 24.03125 -5.296875 24.03125 -10.726562 L 24.03125 -19.441406 C 24.03125 -22.425781 23.398438 -24.605469 22.136719 -25.980469 C 20.875 -27.359375 18.851562 -28.046875 16.058594 -28.046875 C 14.109375 -28.046875 12.542969 -27.75 11.355469 -27.15625 C 10.171875 -26.5625 9.308594 -25.835938 8.773438 -24.976562 C 8.238281 -24.117188 7.972656 -23.304688 7.972656 -22.539062 L 4.246094 -22.539062 C 5.660156 -28.3125 9.617188 -31.199219 16.117188 -31.199219 C 19.902344 -31.199219 22.761719 -30.234375 24.691406 -28.304688 C 26.621094 -26.375 27.585938 -23.515625 27.585938 -19.730469 L 27.585938 0 L 24.433594 0 L 24.433594 -4.300781 L 23.800781 -4.300781 C 22.769531 -2.695312 21.441406 -1.480469 19.816406 -0.660156 C 18.191406 0.164062 16.136719 0.574219 13.648438 0.574219 Z M 13.648438 0.574219 "/></g></g></g><g fill="#ffffff" fill-opacity="1"><g transform="translate(398.687113, 52.42302)"><g><path d="M 5.449219 0 L 5.449219 -41.410156 L 9.003906 -41.410156 L 9.003906 -16.460938 L 26.382812 -30.625 L 31.371094 -30.625 L 11.355469 -14.394531 L 10.898438 -17.953125 L 32.175781 0 L 27.070312 0 L 9.003906 -15.199219 L 9.003906 0 Z M 5.449219 0 "/></g></g></g><g fill="#ffffff" fill-opacity="1"><g transform="translate(430.002291, 52.42302)"><g><path d="M 17.261719 0.574219 C 12.90625 0.574219 9.492188 -0.804688 7.027344 -3.554688 C 4.558594 -6.308594 3.328125 -10.226562 3.328125 -15.3125 C 3.328125 -20.398438 4.558594 -24.316406 7.027344 -27.070312 C 9.492188 -29.824219 12.90625 -31.199219 17.261719 -31.199219 C 21.46875 -31.199219 24.757812 -29.929688 27.128906 -27.386719 C 29.5 -24.84375 30.683594 -21.203125 30.683594 -16.460938 L 30.683594 -14.910156 L 5.851562 -14.910156 L 5.851562 -17.664062 L 28.964844 -17.664062 L 27.359375 -15.542969 L 27.359375 -16.289062 C 27.359375 -20.339844 26.535156 -23.324219 24.890625 -25.234375 C 23.246094 -27.148438 20.703125 -28.101562 17.261719 -28.101562 C 13.785156 -28.101562 11.230469 -27.148438 9.605469 -25.234375 C 7.980469 -23.324219 7.167969 -20.339844 7.167969 -16.289062 L 7.167969 -14.394531 C 7.167969 -10.34375 7.980469 -7.359375 9.605469 -5.449219 C 11.230469 -3.535156 13.785156 -2.582031 17.261719 -2.582031 C 19.558594 -2.582031 21.355469 -2.933594 22.65625 -3.640625 C 23.953125 -4.347656 24.863281 -5.144531 25.378906 -6.023438 C 25.894531 -6.902344 26.152344 -7.589844 26.152344 -8.085938 L 29.824219 -8.085938 C 28.945312 -5.257812 27.433594 -3.105469 25.292969 -1.632812 C 23.152344 -0.164062 20.476562 0.574219 17.261719 0.574219 Z M 17.261719 0.574219 "/></g></g></g><g fill="#ffffff" fill-opacity="1"><g transform="translate(463.898333, 52.42302)"><g><path d="M 5.390625 0 L 5.390625 -30.625 L 8.601562 -30.625 L 8.601562 -25.980469 L 9.234375 -25.980469 C 10.265625 -27.585938 11.527344 -28.800781 13.019531 -29.625 C 14.511719 -30.445312 16.382812 -30.855469 18.640625 -30.855469 L 24.777344 -30.855469 L 24.777344 -27.472656 L 17.378906 -27.472656 C 14.472656 -27.472656 12.339844 -26.753906 10.984375 -25.320312 C 9.625 -23.886719 8.945312 -21.527344 8.945312 -18.238281 L 8.945312 0 Z M 5.390625 0 "/></g></g></g><g fill="#ffffff" fill-opacity="1"><g transform="translate(484.660437, 52.42302)"><g><path d="M 4.816406 -4.589844 L 9.578125 -4.589844 L 9.578125 0 L 4.816406 0 Z M 4.816406 -4.589844 "/></g></g></g></g></g></svg>